<svg xmlns="http://www.w3.org/2000/svg" width="150" height="66" fill="none"><path fill="#009CBF" d="M51.11 35.63c0 1.94-.3 3.33-.9 4.17-.6.84-1.7 1.26-3.3 1.26H29.06c-1.12 0-2.01-.35-2.67-1.05-.64-.7-.96-1.66-.96-2.88V.41l.36-.39h24.15c.1.48.16.94.18 1.38.02.42.03.81.03 1.17 0 .36-.04.81-.12 1.35-.08.52-.21 1.02-.39 1.5H33.71c-.68 0-1.37-.01-2.07-.03 0 .8.01 1.46.03 1.98.02.52.03 1.18.03 1.98v8.34h2.04c.68-.02 1.24-.03 1.68-.03H46.7c.1.42.18.88.24 1.38.06.5.09.92.09 1.26 0 .36-.03.79-.09 1.29-.06.48-.14.94-.24 1.38H33.74l-2.04-.06v9.81c0 .54-.01 1.04-.03 1.5-.02.46-.03.97-.03 1.53.58-.04 1.19-.07 1.83-.09.64-.02 1.35-.03 2.13-.03h15.51Zm5.016-2.7c0-2.28.5-4.15 1.5-5.61 1.02-1.46 2.39-2.54 4.11-3.24 1.74-.72 3.69-1.08 5.85-1.08.84 0 1.76.03 2.76.09 1.02.04 2.03.13 3.03.27v-2.31c0-1.88-.43-3.23-1.29-4.05-.86-.82-2.06-1.23-3.6-1.23-1.52 0-3.09.23-4.71.69-1.6.44-3.18.97-4.74 1.59-.5-.5-.92-1.18-1.26-2.04-.34-.88-.53-1.72-.57-2.52 1.7-.72 3.69-1.36 5.97-1.92 2.3-.56 4.47-.84 6.51-.84 2.94 0 5.31.82 7.11 2.46 1.8 1.64 2.7 4.18 2.7 7.62v12.3c0 1.12.1 2.11.3 2.97.22.84.68 1.56 1.38 2.16-.18.56-.49 1.16-.93 1.8-.44.62-.91 1.09-1.41 1.41-1.24-.24-2.25-.7-3.03-1.38a6.856 6.856 0 0 1-1.74-2.4c-1.08 1.04-2.38 1.99-3.9 2.85-1.52.84-3.26 1.26-5.22 1.26-1.98 0-3.63-.44-4.95-1.32-1.3-.88-2.27-2-2.91-3.36-.64-1.36-.96-2.75-.96-4.17Zm6.15-.42c0 1.22.35 2.26 1.05 3.12.7.84 1.7 1.26 3 1.26 1.12 0 2.31-.31 3.57-.93 1.26-.62 2.42-1.53 3.48-2.73v-5.67c-.9-.1-1.82-.17-2.76-.21-.92-.04-1.8-.06-2.64-.06-1.82 0-3.23.46-4.23 1.38-.98.92-1.47 2.2-1.47 3.84ZM89.07 6.14c0-1.38.23-2.38.69-3 .46-.64 1.35-.96 2.67-.96h2.34l.36.39v8.85l7.44-.09c.18.78.27 1.53.27 2.25a9.5 9.5 0 0 1-.27 2.31l-7.44-.09v17.94c0 .8.19 1.44.57 1.92.38.46 1.02.69 1.92.69h4.11c.34.92.51 1.96.51 3.12 0 .24-.01.48-.03.72 0 .22-.03.43-.09.63-1 .12-2.07.22-3.21.3-1.14.1-2.3.15-3.48.15-4.24 0-6.36-2.06-6.36-6.18V15.83l-4.38.06a9.5 9.5 0 0 1-.27-2.31c0-.72.09-1.47.27-2.25l4.38.06V6.14Zm16.402 32.67c.02-.7.23-1.48.63-2.34.4-.86.87-1.53 1.41-2.01 1.26.7 2.61 1.32 4.05 1.86s2.9.81 4.38.81c1.64 0 2.93-.35 3.87-1.05.96-.7 1.45-1.6 1.47-2.7 0-1.8-1.25-3.16-3.75-4.08l-3.48-1.29c-2.08-.76-3.87-1.81-5.37-3.15-1.5-1.34-2.25-3.14-2.25-5.4 0-1.84.46-3.42 1.38-4.74.94-1.32 2.21-2.33 3.81-3.03 1.6-.72 3.41-1.08 5.43-1.08 1.62 0 3.34.21 5.16.63 1.84.42 3.38.93 4.62 1.53.02.76-.14 1.59-.48 2.49-.34.9-.78 1.58-1.32 2.04-1.06-.46-2.29-.9-3.69-1.32-1.4-.42-2.84-.63-4.32-.63-1.32 0-2.38.32-3.18.96-.78.62-1.17 1.46-1.17 2.52 0 .84.3 1.54.9 2.1.62.56 1.56 1.07 2.82 1.53l3.69 1.35c2.24.82 4.07 1.96 5.49 3.42 1.42 1.44 2.13 3.31 2.13 5.61 0 2.78-1.08 4.97-3.24 6.57-2.14 1.58-4.98 2.37-8.52 2.37-2.12 0-4.07-.3-5.85-.9-1.78-.6-3.32-1.29-4.62-2.07Z"/><path fill="#000" d="M32.711 56.324c0 .828-.222 1.53-.666 2.106-.444.57-.993.96-1.647 1.17.3.108.555.303.765.585.216.276.387.591.513.945l.792 2.106c.132.354.258.627.378.819.126.192.27.351.432.477a1.184 1.184 0 0 1-.567.441 1.893 1.893 0 0 1-.729.153c-.36 0-.624-.099-.792-.297-.168-.198-.324-.489-.468-.873l-.9-2.439a3.059 3.059 0 0 0-.603-1.035c-.252-.282-.657-.423-1.215-.423h-1.467V65a3.01 3.01 0 0 1-.486.054 6.71 6.71 0 0 1-.954 0 2.643 2.643 0 0 1-.468-.054V52.805l.117-.108 1.989-.036a68.106 68.106 0 0 1 1.89-.027c1.248 0 2.241.315 2.979.945.738.63 1.107 1.545 1.107 2.745Zm-6.174-2.187v4.392a59.292 59.292 0 0 1 1.989-.036c.588 0 1.041-.108 1.359-.324.318-.216.537-.489.657-.819.12-.336.18-.678.18-1.026 0-.366-.06-.714-.18-1.044-.12-.33-.339-.6-.657-.81-.318-.21-.771-.315-1.359-.315h-.963l-1.026-.018Zm16.607 9.252c0 .582-.09.999-.27 1.251-.18.252-.51.378-.99.378h-5.355c-.337 0-.604-.105-.802-.315-.191-.21-.287-.498-.287-.864V52.823l.108-.117h7.244c.03.144.048.282.054.414.007.126.01.243.01.351 0 .108-.013.243-.037.405a2.254 2.254 0 0 1-.117.45h-4.779c-.204 0-.41-.003-.62-.009 0 .24.003.438.009.594.006.156.009.354.009.594v2.502h.611c.204-.006.372-.009.505-.009h3.384c.03.126.053.264.072.414.017.15.026.276.026.378 0 .108-.008.237-.026.387a4.242 4.242 0 0 1-.072.414h-3.889l-.611-.018v2.943c0 .162-.003.312-.01.45-.005.138-.008.291-.008.459.174-.012.357-.021.549-.027.192-.006.405-.009.639-.009h4.653Zm1.41.504a1.98 1.98 0 0 1 .27-.828c.163-.276.34-.492.532-.648.522.342 1.1.63 1.737.864a5.422 5.422 0 0 0 1.88.351c.727 0 1.29-.156 1.693-.468.402-.318.603-.726.603-1.224 0-.42-.141-.792-.423-1.116-.282-.33-.687-.606-1.215-.828l-2.17-.909c-.761-.318-1.367-.726-1.817-1.224-.444-.504-.666-1.14-.666-1.908 0-.654.17-1.242.513-1.764a3.622 3.622 0 0 1 1.44-1.251c.612-.312 1.32-.468 2.124-.468.75 0 1.455.096 2.115.288.66.192 1.224.405 1.692.639a2.008 2.008 0 0 1-.207.828c-.126.27-.288.495-.486.675a9.43 9.43 0 0 0-1.548-.594c-.558-.168-1.068-.252-1.53-.252-.672 0-1.2.162-1.584.486-.378.324-.567.723-.567 1.197 0 .396.138.72.414.972.276.252.636.471 1.08.657l2.15.891c.769.318 1.408.756 1.918 1.314.516.558.774 1.242.774 2.052 0 .69-.162 1.308-.486 1.854-.318.54-.804.969-1.458 1.287-.654.312-1.476.468-2.466.468-.75 0-1.506-.12-2.268-.36a7.581 7.581 0 0 1-2.043-.981Zm12.471-8.262v-1.332c-.126 0-.3.003-.522.009-.222.006-.396.009-.522.009h-2.133a3.288 3.288 0 0 1-.063-.414 4.483 4.483 0 0 1-.018-.387c0-.12.006-.249.018-.387.012-.138.033-.279.063-.423h8.271c.072.234.108.486.108.756 0 .312-.087.534-.26.666-.175.126-.445.189-.81.189h-1.18c-.12 0-.294-.003-.522-.009a20.38 20.38 0 0 0-.513-.009h-.009v.675c.006.198.01.417.01.657V65c-.157.03-.322.048-.496.054a6.598 6.598 0 0 1-.945 0 2.972 2.972 0 0 1-.477-.054v-9.369Zm8.436 6.399h-.459a47.124 47.124 0 0 1-.585-.018l-.954 3.006c-.12.03-.252.048-.396.054a5.2 5.2 0 0 1-.432.018c-.354 0-.666-.042-.936-.126l-.054-.09 4.06-12.168c.15-.024.332-.042.548-.054.216-.012.405-.018.567-.018.15 0 .333.006.55.018.215.012.39.033.521.063l4.041 12.168a1.474 1.474 0 0 1-.513.18 2.898 2.898 0 0 1-.603.063c-.306 0-.543-.069-.71-.207-.169-.138-.313-.408-.433-.81l-.666-2.097a44.61 44.61 0 0 1-.603.018h-2.943Zm.486-4.824-1.035 3.249c.138 0 .306-.003.504-.009.204-.006.342-.009.414-.009h1.791c.066 0 .192.003.378.009.192 0 .363.003.513.009l-.828-2.601c-.162-.522-.33-1.074-.504-1.656a54.904 54.904 0 0 1-.432-1.593h-.099c-.09.402-.207.855-.35 1.359-.139.498-.256.912-.352 1.242Zm16.574 3.474c0 1.488-.414 2.619-1.242 3.393-.828.774-1.932 1.161-3.312 1.161-1.374 0-2.475-.387-3.303-1.161-.822-.774-1.233-1.905-1.233-3.393v-7.938l.117-.117h.73c.39 0 .665.099.827.297.162.198.243.51.243.936v6.822c0 2.004.876 3.006 2.628 3.006 1.752 0 2.628-1.002 2.628-3.006v-7.974c.144-.03.297-.048.46-.054a6.71 6.71 0 0 1 .962 0c.186.006.351.024.495.054v7.974Zm11.186-4.356c0 .828-.222 1.53-.666 2.106-.444.57-.993.96-1.647 1.17.3.108.555.303.765.585.216.276.387.591.513.945l.792 2.106c.132.354.258.627.378.819.126.192.27.351.432.477a1.184 1.184 0 0 1-.567.441 1.893 1.893 0 0 1-.729.153c-.36 0-.624-.099-.792-.297-.168-.198-.324-.489-.468-.873l-.9-2.439a3.059 3.059 0 0 0-.603-1.035c-.252-.282-.657-.423-1.215-.423h-1.467V65a3.01 3.01 0 0 1-.486.054 6.71 6.71 0 0 1-.954 0 2.643 2.643 0 0 1-.468-.054V52.805l.117-.108 1.99-.036a68.106 68.106 0 0 1 1.89-.027c1.247 0 2.24.315 2.978.945.738.63 1.107 1.545 1.107 2.745Zm-6.174-2.187v4.392a59.292 59.292 0 0 1 1.99-.036c.587 0 1.04-.108 1.358-.324.318-.216.537-.489.657-.819.12-.336.18-.678.18-1.026 0-.366-.06-.714-.18-1.044-.12-.33-.339-.6-.657-.81-.318-.21-.77-.315-1.359-.315h-.963l-1.026-.018Zm11.45 7.893h-.46a47.124 47.124 0 0 1-.584-.018l-.954 3.006c-.12.03-.252.048-.396.054a5.2 5.2 0 0 1-.432.018c-.354 0-.666-.042-.936-.126l-.054-.09 4.059-12.168c.15-.024.333-.042.549-.054.216-.012.405-.018.567-.018.15 0 .333.006.549.018.216.012.39.033.522.063l4.041 12.168a1.474 1.474 0 0 1-.513.18 2.898 2.898 0 0 1-.603.063c-.306 0-.543-.069-.711-.207-.168-.138-.312-.408-.432-.81l-.666-2.097a44.61 44.61 0 0 1-.603.018h-2.943Zm.486-4.824-1.035 3.249c.138 0 .306-.003.504-.009.204-.006.342-.009.414-.009h1.791c.066 0 .192.003.378.009.192 0 .363.003.513.009l-.828-2.601c-.162-.522-.33-1.074-.504-1.656a54.904 54.904 0 0 1-.432-1.593h-.099c-.09.402-.207.855-.351 1.359-.138.498-.255.912-.351 1.242Zm10.815.243a41.253 41.253 0 0 1-.621-1.296l-.531-1.197-.063.009c.024.42.048.888.072 1.404.024.51.042 1.029.054 1.557.018.522.027 1.005.027 1.449V65c-.162.03-.318.048-.468.054a5.221 5.221 0 0 1-.837 0 3.137 3.137 0 0 1-.477-.054V52.724a4.32 4.32 0 0 1 .576-.063 7.73 7.73 0 0 1 .567-.027c.15 0 .33.006.54.018.216.006.417.024.603.054l3.807 7.542c.228.474.441.936.639 1.386.204.444.393.849.567 1.215l.063-.009c-.036-.48-.066-.99-.09-1.53-.018-.546-.033-1.077-.045-1.593-.012-.522-.018-.99-.018-1.404v-4.491c0-.42.072-.723.216-.909.15-.192.423-.288.819-.288h.621l.117.108v12.249c-.156.03-.345.051-.567.063a7.433 7.433 0 0 1-1.161.009 4.71 4.71 0 0 1-.585-.054l-3.825-7.551Zm11.253-1.818v-1.332c-.126 0-.3.003-.522.009-.222.006-.396.009-.522.009h-2.133a3.288 3.288 0 0 1-.063-.414 4.483 4.483 0 0 1-.018-.387c0-.12.006-.249.018-.387.012-.138.033-.279.063-.423h8.271c.072.234.108.486.108.756 0 .312-.087.534-.261.666-.174.126-.444.189-.81.189h-1.179c-.12 0-.294-.003-.522-.009a20.38 20.38 0 0 0-.513-.009h-.009v.675c.006.198.009.417.009.657V65c-.156.03-.321.048-.495.054a6.598 6.598 0 0 1-.945 0 2.972 2.972 0 0 1-.477-.054v-9.369Z"/><path fill="#E78200" d="M5 25a5 5 0 1 0 0-10 5 5 0 0 0 0 10ZM145 25a5 5 0 1 0 0-10 5 5 0 0 0 0 10Z"/></svg>